<svg width="200" height="200" viewBox="0 0 200 200" fill="none" xmlns="http://www.w3.org/2000/svg">
<path d="M0 5.79687C0 3.58774 1.79086 1.79688 4 1.79688H195.469C197.678 1.79688 199.469 3.58774 199.469 5.79687V196C199.469 198.209 197.678 200 195.469 200H4C1.79086 200 0 198.209 0 196V5.79687Z" fill="black"/>
<path d="M58.2868 29.442C-3.19603 61.7646 57.8216 161.867 41.267 130.13C32.4317 114.163 16.139 64.0962 65.4597 37.1509C114.78 10.2057 141.718 53.4395 150.553 69.407C159.389 85.3745 114.261 -0.904421 58.2868 29.442Z" fill="#6C6C6C"/>
<path d="M71.7886 31.3584C5.87749 53.9465 50.6704 162.186 39.232 128.294C32.9757 111.165 24.6558 59.1953 77.6873 40.0706C130.719 20.9459 150.643 67.7828 156.9 84.9114C163.156 102.04 131.938 9.88494 71.7886 31.3584Z" fill="#515151"/>
<path d="M75.2433 28.6993C31.9114 50.4046 74.6211 123.854 63.0438 100.636C56.8627 88.9426 40.0362 55.3328 74.7988 37.1906C109.561 19.0485 133.893 48.0117 140.074 59.7054C146.255 71.3992 114.695 8.27782 75.2433 28.6993Z" fill="black"/>
<path d="M62.9665 42.869C7.05256 80.3202 64.3951 158.653 47.2318 132.635C38.1222 119.616 20.2486 77.1985 65.0489 46.2482C109.849 15.2979 137.339 50.1274 146.449 63.1466C155.558 76.1658 113.823 7.95219 62.9665 42.869Z" fill="#6C6C6C"/>
<path d="M39.8763 120.764C18.6045 131.922 40.8486 168.605 34.7743 156.999C31.5408 151.155 25.4011 132.928 42.4564 123.61C59.5117 114.292 69.3237 130.141 72.5573 135.985C75.7908 141.828 59.2346 110.274 39.8763 120.764Z" fill="#D9D9D9"/>
<path d="M71.9866 178.826C51.1253 190.726 30.1326 149.27 37.2723 161.544C40.7766 167.877 53.7437 184.181 70.799 174.863C87.8543 165.545 78.8891 147.459 75.3848 141.126C71.8805 134.792 91.2689 168.199 71.9866 178.826Z" fill="#D9D9D9"/>
<path d="M185.886 90.708C172.982 59.9912 145.387 71.9839 154.273 69.3707C158.719 67.8402 173.22 67.9028 183.883 92.6856C194.545 117.468 182.655 122.897 178.209 124.428C173.763 125.958 197.915 118.802 185.886 90.708Z" fill="#6C6C6C"/>
<path d="M141.699 105.894C128.23 75.3711 160.082 66.899 150.8 70.5402C145.982 72.1989 134.213 81.3051 144.875 106.088C155.538 130.871 169.465 127.412 174.284 125.753C179.102 124.094 153.832 133.951 141.699 105.894Z" fill="#6C6C6C"/>
<path d="M126.129 112.63C112.516 82.1569 159.584 68.4469 145.652 73.6889C138.462 76.1638 128.238 86.7335 138.9 111.516C147.283 131.003 161.83 131.417 169.019 128.942C176.208 126.467 138.289 140.678 126.129 112.63Z" fill="#6C6C6C"/>
<path d="M24.4657 167.346C7.08528 139.18 45.9796 122.283 34.6775 128.421C28.8045 131.367 21.7074 142.324 35.4832 165.263C46.3146 183.301 59.1629 182.543 65.036 179.596C70.909 176.65 40.1384 193.301 24.4657 167.346Z" fill="#6C6C6C"/>
<g clip-path="url(#clip0_245_302)">
<path d="M39 123.8V79H47.32V116.12H67.992V123.8H39ZM85.6795 123.8L67.7595 79H76.8475L86.8315 104.664C87.3435 105.987 87.7915 107.181 88.1755 108.248C88.5595 109.272 88.9008 110.211 89.1995 111.064C89.4982 111.917 89.7542 112.749 89.9675 113.56C90.2235 114.371 90.5008 115.224 90.7995 116.12H89.0075C89.3062 114.968 89.6262 113.837 89.9675 112.728C90.3088 111.576 90.6928 110.36 91.1195 109.08C91.5888 107.8 92.1435 106.328 92.7835 104.664L102.128 79H111.28L93.2315 123.8H85.6795ZM118.375 123.8V79H126.247L142.567 105.56L137.959 105.496L154.471 79H161.959V123.8H153.703V106.968C153.703 103.128 153.788 99.672 153.959 96.6C154.172 93.528 154.514 90.4773 154.983 87.448L156.007 90.2L142.119 111.64H137.895L124.455 90.392L125.351 87.448C125.82 90.3067 126.14 93.2507 126.311 96.28C126.524 99.2667 126.631 102.829 126.631 106.968V123.8H118.375Z" fill="#FF228D"/>
</g>
<defs>
<clipPath id="clip0_245_302">
<rect width="123" height="45" fill="white" transform="translate(38 78)"/>
</clipPath>
</defs>
</svg>
