<svg width="361" height="361" viewBox="0 0 361 361" fill="none" xmlns="http://www.w3.org/2000/svg">
<circle cx="175.631" cy="182.855" r="98.2032" fill="#FF228D"/>
<circle cx="175.147" cy="183.188" r="11.5533" fill="black"/>
<path d="M360.369 180.016C360.369 279.427 279.78 360.016 180.369 360.016C80.9579 360.016 0.369141 279.427 0.369141 180.016C0.369141 80.6044 80.9579 0.015625 180.369 0.015625C279.78 0.015625 360.369 80.6044 360.369 180.016ZM1.26913 180.016C1.26913 278.93 81.4549 359.116 180.369 359.116C279.283 359.116 359.469 278.93 359.469 180.016C359.469 81.1014 279.283 0.915619 180.369 0.915619C81.4549 0.915619 1.26913 81.1014 1.26913 180.016Z" fill="#090100"/>
<path d="M340.367 180.492C340.367 269.59 268.139 341.818 179.041 341.818C89.9429 341.818 17.7148 269.59 17.7148 180.492C17.7148 91.3941 89.9429 19.166 179.041 19.166C268.139 19.166 340.367 91.3941 340.367 180.492ZM18.5215 180.492C18.5215 269.144 90.3884 341.011 179.041 341.011C267.693 341.011 339.56 269.144 339.56 180.492C339.56 91.8396 267.693 19.9726 179.041 19.9726C90.3884 19.9726 18.5215 91.8396 18.5215 180.492Z" fill="#090100"/>
<path d="M322.211 180.845C322.211 259.641 258.334 323.518 179.538 323.518C100.742 323.518 36.8652 259.641 36.8652 180.845C36.8652 102.049 100.742 38.1724 179.538 38.1724C258.334 38.1724 322.211 102.049 322.211 180.845ZM37.5786 180.845C37.5786 259.247 101.136 322.805 179.538 322.805C257.94 322.805 321.497 259.247 321.497 180.845C321.497 102.443 257.94 38.8857 179.538 38.8857C101.136 38.8857 37.5786 102.443 37.5786 180.845Z" fill="#090100"/>
</svg>
